<svg width="71" height="71" viewBox="0 0 71 71" fill="none" xmlns="http://www.w3.org/2000/svg">
<g clip-path="url(#clip0)">
<circle cx="1.2619" cy="68.9285" r="1.2619" transform="rotate(-90 1.2619 68.9285)" fill="white" fill-opacity="0.05"/>
<circle cx="1.2619" cy="61.8621" r="1.2619" transform="rotate(-90 1.2619 61.8621)" fill="white" fill-opacity="0.05"/>
<circle cx="1.2619" cy="54.7947" r="1.2619" transform="rotate(-90 1.2619 54.7947)" fill="white" fill-opacity="0.05"/>
<circle cx="1.2619" cy="47.7283" r="1.2619" transform="rotate(-90 1.2619 47.7283)" fill="white" fill-opacity="0.05"/>
<circle cx="1.2619" cy="40.6619" r="1.2619" transform="rotate(-90 1.2619 40.6619)" fill="white" fill-opacity="0.05"/>
<circle cx="1.2619" cy="33.5955" r="1.2619" transform="rotate(-90 1.2619 33.5955)" fill="white" fill-opacity="0.05"/>
<circle cx="1.2619" cy="26.5281" r="1.2619" transform="rotate(-90 1.2619 26.5281)" fill="white" fill-opacity="0.05"/>
<circle cx="1.2619" cy="19.4617" r="1.2619" transform="rotate(-90 1.2619 19.4617)" fill="white" fill-opacity="0.05"/>
<circle cx="1.2619" cy="12.3953" r="1.2619" transform="rotate(-90 1.2619 12.3953)" fill="white" fill-opacity="0.05"/>
<circle cx="1.2619" cy="5.32892" r="1.2619" transform="rotate(-90 1.2619 5.32892)" fill="white" fill-opacity="0.05"/>
<circle cx="8.32831" cy="68.9285" r="1.2619" transform="rotate(-90 8.32831 68.9285)" fill="white" fill-opacity="0.05"/>
<circle cx="8.32831" cy="61.8621" r="1.2619" transform="rotate(-90 8.32831 61.8621)" fill="white" fill-opacity="0.05"/>
<circle cx="8.32831" cy="54.7947" r="1.2619" transform="rotate(-90 8.32831 54.7947)" fill="white" fill-opacity="0.05"/>
<circle cx="8.32831" cy="47.7283" r="1.2619" transform="rotate(-90 8.32831 47.7283)" fill="white" fill-opacity="0.05"/>
<circle cx="8.32831" cy="40.6619" r="1.2619" transform="rotate(-90 8.32831 40.6619)" fill="white" fill-opacity="0.05"/>
<circle cx="8.32831" cy="33.5955" r="1.2619" transform="rotate(-90 8.32831 33.5955)" fill="white" fill-opacity="0.05"/>
<circle cx="8.32831" cy="26.5281" r="1.2619" transform="rotate(-90 8.32831 26.5281)" fill="white" fill-opacity="0.05"/>
<circle cx="8.32831" cy="19.4617" r="1.2619" transform="rotate(-90 8.32831 19.4617)" fill="white" fill-opacity="0.05"/>
<circle cx="8.32831" cy="12.3953" r="1.2619" transform="rotate(-90 8.32831 12.3953)" fill="white" fill-opacity="0.05"/>
<circle cx="8.32831" cy="5.32892" r="1.2619" transform="rotate(-90 8.32831 5.32892)" fill="white" fill-opacity="0.05"/>
<circle cx="15.3957" cy="68.9285" r="1.2619" transform="rotate(-90 15.3957 68.9285)" fill="white" fill-opacity="0.05"/>
<circle cx="15.3957" cy="61.8621" r="1.2619" transform="rotate(-90 15.3957 61.8621)" fill="white" fill-opacity="0.05"/>
<circle cx="15.3957" cy="54.7947" r="1.2619" transform="rotate(-90 15.3957 54.7947)" fill="white" fill-opacity="0.05"/>
<circle cx="15.3957" cy="47.7283" r="1.2619" transform="rotate(-90 15.3957 47.7283)" fill="white" fill-opacity="0.05"/>
<circle cx="15.3957" cy="40.6619" r="1.2619" transform="rotate(-90 15.3957 40.6619)" fill="white" fill-opacity="0.05"/>
<circle cx="15.3957" cy="33.5955" r="1.2619" transform="rotate(-90 15.3957 33.5955)" fill="white" fill-opacity="0.05"/>
<circle cx="15.3957" cy="26.5281" r="1.2619" transform="rotate(-90 15.3957 26.5281)" fill="white" fill-opacity="0.05"/>
<circle cx="15.3957" cy="19.4617" r="1.2619" transform="rotate(-90 15.3957 19.4617)" fill="white" fill-opacity="0.05"/>
<circle cx="15.3957" cy="12.3953" r="1.2619" transform="rotate(-90 15.3957 12.3953)" fill="white" fill-opacity="0.05"/>
<circle cx="15.3957" cy="5.32892" r="1.2619" transform="rotate(-90 15.3957 5.32892)" fill="white" fill-opacity="0.05"/>
<circle cx="22.4621" cy="68.9285" r="1.2619" transform="rotate(-90 22.4621 68.9285)" fill="white" fill-opacity="0.05"/>
<circle cx="22.4621" cy="61.8621" r="1.2619" transform="rotate(-90 22.4621 61.8621)" fill="white" fill-opacity="0.05"/>
<circle cx="22.4621" cy="54.7947" r="1.2619" transform="rotate(-90 22.4621 54.7947)" fill="white" fill-opacity="0.05"/>
<circle cx="22.4621" cy="47.7283" r="1.2619" transform="rotate(-90 22.4621 47.7283)" fill="white" fill-opacity="0.05"/>
<circle cx="22.4621" cy="40.6619" r="1.2619" transform="rotate(-90 22.4621 40.6619)" fill="white" fill-opacity="0.05"/>
<circle cx="22.4621" cy="33.5955" r="1.2619" transform="rotate(-90 22.4621 33.5955)" fill="white" fill-opacity="0.05"/>
<circle cx="22.4621" cy="26.5281" r="1.2619" transform="rotate(-90 22.4621 26.5281)" fill="white" fill-opacity="0.05"/>
<circle cx="22.4621" cy="19.4617" r="1.2619" transform="rotate(-90 22.4621 19.4617)" fill="white" fill-opacity="0.05"/>
<circle cx="22.4621" cy="12.3953" r="1.2619" transform="rotate(-90 22.4621 12.3953)" fill="white" fill-opacity="0.05"/>
<circle cx="22.4621" cy="5.32892" r="1.2619" transform="rotate(-90 22.4621 5.32892)" fill="white" fill-opacity="0.05"/>
<circle cx="29.5285" cy="68.9285" r="1.2619" transform="rotate(-90 29.5285 68.9285)" fill="white" fill-opacity="0.05"/>
<circle cx="29.5285" cy="61.8621" r="1.2619" transform="rotate(-90 29.5285 61.8621)" fill="white" fill-opacity="0.05"/>
<circle cx="29.5285" cy="54.7947" r="1.2619" transform="rotate(-90 29.5285 54.7947)" fill="white" fill-opacity="0.05"/>
<circle cx="29.5285" cy="47.7283" r="1.2619" transform="rotate(-90 29.5285 47.7283)" fill="white" fill-opacity="0.05"/>
<circle cx="29.5285" cy="40.6619" r="1.2619" transform="rotate(-90 29.5285 40.6619)" fill="white" fill-opacity="0.05"/>
<circle cx="29.5285" cy="33.5955" r="1.2619" transform="rotate(-90 29.5285 33.5955)" fill="white" fill-opacity="0.05"/>
<circle cx="29.5285" cy="26.5281" r="1.2619" transform="rotate(-90 29.5285 26.5281)" fill="white" fill-opacity="0.05"/>
<circle cx="29.5285" cy="19.4617" r="1.2619" transform="rotate(-90 29.5285 19.4617)" fill="white" fill-opacity="0.05"/>
<circle cx="29.5285" cy="12.3953" r="1.2619" transform="rotate(-90 29.5285 12.3953)" fill="white" fill-opacity="0.05"/>
<circle cx="29.5285" cy="5.32892" r="1.2619" transform="rotate(-90 29.5285 5.32892)" fill="white" fill-opacity="0.05"/>
<circle cx="36.5949" cy="68.9285" r="1.2619" transform="rotate(-90 36.5949 68.9285)" fill="white" fill-opacity="0.05"/>
<circle cx="36.5949" cy="61.8621" r="1.2619" transform="rotate(-90 36.5949 61.8621)" fill="white" fill-opacity="0.05"/>
<circle cx="36.5949" cy="54.7947" r="1.2619" transform="rotate(-90 36.5949 54.7947)" fill="white" fill-opacity="0.05"/>
<circle cx="36.5949" cy="47.7283" r="1.2619" transform="rotate(-90 36.5949 47.7283)" fill="white" fill-opacity="0.05"/>
<circle cx="36.5949" cy="40.6619" r="1.2619" transform="rotate(-90 36.5949 40.6619)" fill="white" fill-opacity="0.05"/>
<circle cx="36.5949" cy="33.5955" r="1.2619" transform="rotate(-90 36.5949 33.5955)" fill="white" fill-opacity="0.05"/>
<circle cx="36.5949" cy="26.5281" r="1.2619" transform="rotate(-90 36.5949 26.5281)" fill="white" fill-opacity="0.05"/>
<circle cx="36.5949" cy="19.4617" r="1.2619" transform="rotate(-90 36.5949 19.4617)" fill="white" fill-opacity="0.05"/>
<circle cx="36.5949" cy="12.3953" r="1.2619" transform="rotate(-90 36.5949 12.3953)" fill="white" fill-opacity="0.05"/>
<circle cx="36.5949" cy="5.32892" r="1.2619" transform="rotate(-90 36.5949 5.32892)" fill="white" fill-opacity="0.05"/>
<circle cx="43.6623" cy="68.9285" r="1.2619" transform="rotate(-90 43.6623 68.9285)" fill="white" fill-opacity="0.05"/>
<circle cx="43.6623" cy="61.8621" r="1.2619" transform="rotate(-90 43.6623 61.8621)" fill="white" fill-opacity="0.05"/>
<circle cx="43.6623" cy="54.7947" r="1.2619" transform="rotate(-90 43.6623 54.7947)" fill="white" fill-opacity="0.05"/>
<circle cx="43.6623" cy="47.7283" r="1.2619" transform="rotate(-90 43.6623 47.7283)" fill="white" fill-opacity="0.05"/>
<circle cx="43.6623" cy="40.6619" r="1.2619" transform="rotate(-90 43.6623 40.6619)" fill="white" fill-opacity="0.05"/>
<circle cx="43.6623" cy="33.5955" r="1.2619" transform="rotate(-90 43.6623 33.5955)" fill="white" fill-opacity="0.05"/>
<circle cx="43.6623" cy="26.5281" r="1.2619" transform="rotate(-90 43.6623 26.5281)" fill="white" fill-opacity="0.05"/>
<circle cx="43.6623" cy="19.4617" r="1.2619" transform="rotate(-90 43.6623 19.4617)" fill="white" fill-opacity="0.05"/>
<circle cx="43.6623" cy="12.3953" r="1.2619" transform="rotate(-90 43.6623 12.3953)" fill="white" fill-opacity="0.05"/>
<circle cx="43.6623" cy="5.32892" r="1.2619" transform="rotate(-90 43.6623 5.32892)" fill="white" fill-opacity="0.05"/>
<circle cx="50.7287" cy="68.9285" r="1.2619" transform="rotate(-90 50.7287 68.9285)" fill="white" fill-opacity="0.05"/>
<circle cx="50.7287" cy="61.8621" r="1.2619" transform="rotate(-90 50.7287 61.8621)" fill="white" fill-opacity="0.05"/>
<circle cx="50.7287" cy="54.7947" r="1.2619" transform="rotate(-90 50.7287 54.7947)" fill="white" fill-opacity="0.05"/>
<circle cx="50.7287" cy="47.7283" r="1.2619" transform="rotate(-90 50.7287 47.7283)" fill="white" fill-opacity="0.05"/>
<circle cx="50.7287" cy="40.6619" r="1.2619" transform="rotate(-90 50.7287 40.6619)" fill="white" fill-opacity="0.05"/>
<circle cx="50.7287" cy="33.5955" r="1.2619" transform="rotate(-90 50.7287 33.5955)" fill="white" fill-opacity="0.05"/>
<circle cx="50.7287" cy="26.5281" r="1.2619" transform="rotate(-90 50.7287 26.5281)" fill="white" fill-opacity="0.05"/>
<circle cx="50.7287" cy="19.4617" r="1.2619" transform="rotate(-90 50.7287 19.4617)" fill="white" fill-opacity="0.05"/>
<circle cx="50.7287" cy="12.3953" r="1.2619" transform="rotate(-90 50.7287 12.3953)" fill="white" fill-opacity="0.05"/>
<circle cx="50.7287" cy="5.32892" r="1.2619" transform="rotate(-90 50.7287 5.32892)" fill="white" fill-opacity="0.05"/>
<circle cx="57.7951" cy="68.9285" r="1.2619" transform="rotate(-90 57.7951 68.9285)" fill="white" fill-opacity="0.05"/>
<circle cx="57.7951" cy="61.8621" r="1.2619" transform="rotate(-90 57.7951 61.8621)" fill="white" fill-opacity="0.05"/>
<circle cx="57.7951" cy="54.7947" r="1.2619" transform="rotate(-90 57.7951 54.7947)" fill="white" fill-opacity="0.05"/>
<circle cx="57.7951" cy="47.7283" r="1.2619" transform="rotate(-90 57.7951 47.7283)" fill="white" fill-opacity="0.05"/>
<circle cx="57.7951" cy="40.6619" r="1.2619" transform="rotate(-90 57.7951 40.6619)" fill="white" fill-opacity="0.05"/>
<circle cx="57.7951" cy="33.5955" r="1.2619" transform="rotate(-90 57.7951 33.5955)" fill="white" fill-opacity="0.05"/>
<circle cx="57.7951" cy="26.5281" r="1.2619" transform="rotate(-90 57.7951 26.5281)" fill="white" fill-opacity="0.05"/>
<circle cx="57.7951" cy="19.4617" r="1.2619" transform="rotate(-90 57.7951 19.4617)" fill="white" fill-opacity="0.05"/>
<circle cx="57.7951" cy="12.3953" r="1.2619" transform="rotate(-90 57.7951 12.3953)" fill="white" fill-opacity="0.05"/>
<circle cx="57.7951" cy="5.32892" r="1.2619" transform="rotate(-90 57.7951 5.32892)" fill="white" fill-opacity="0.05"/>
<circle cx="64.8615" cy="68.9285" r="1.2619" transform="rotate(-90 64.8615 68.9285)" fill="white" fill-opacity="0.05"/>
<circle cx="64.8615" cy="61.8621" r="1.2619" transform="rotate(-90 64.8615 61.8621)" fill="white" fill-opacity="0.05"/>
<circle cx="64.8615" cy="54.7947" r="1.2619" transform="rotate(-90 64.8615 54.7947)" fill="white" fill-opacity="0.05"/>
<circle cx="64.8615" cy="47.7283" r="1.2619" transform="rotate(-90 64.8615 47.7283)" fill="white" fill-opacity="0.05"/>
<circle cx="64.8615" cy="40.6619" r="1.2619" transform="rotate(-90 64.8615 40.6619)" fill="white" fill-opacity="0.05"/>
<circle cx="64.8615" cy="33.5955" r="1.2619" transform="rotate(-90 64.8615 33.5955)" fill="white" fill-opacity="0.05"/>
<circle cx="64.8615" cy="26.5281" r="1.2619" transform="rotate(-90 64.8615 26.5281)" fill="white" fill-opacity="0.05"/>
<circle cx="64.8615" cy="19.4617" r="1.2619" transform="rotate(-90 64.8615 19.4617)" fill="white" fill-opacity="0.05"/>
<circle cx="64.8615" cy="12.3953" r="1.2619" transform="rotate(-90 64.8615 12.3953)" fill="white" fill-opacity="0.05"/>
<circle cx="64.8615" cy="5.32892" r="1.2619" transform="rotate(-90 64.8615 5.32892)" fill="white" fill-opacity="0.05"/>
</g>
<defs>
<clipPath id="clip0">
<rect width="70.6" height="70.6" fill="white"/>
</clipPath>
</defs>
</svg>
